<?xml version="1.0" ?><svg width="512px" height="512px" viewBox="0 0 512 512" data-name="Layer 1" id="Layer_1" xmlns="http://www.w3.org/2000/svg"><title/><path d="M59.84,209.16a8,8,0,0,0-5.67,2.35c-3.39,3.4-33.09,33.88-33.09,58,0,25.89,17.38,46.94,38.76,46.94S98.6,295.39,98.6,269.5c0-24.11-29.71-54.59-33.1-58A8,8,0,0,0,59.84,209.16Zm0,91.28c-12.55,0-22.76-13.88-22.76-30.94,0-11.1,12.3-28.72,22.76-40.61C70.29,240.78,82.6,258.4,82.6,269.5,82.6,286.56,72.39,300.44,59.84,300.44ZM487.13,174a8,8,0,0,0-7.79-.35l-71,35.66H313v-23h7.35a8,8,0,0,0,8-8v-27a8,8,0,0,0-8-8h-53.9a8,8,0,0,0-8,8v27a8,8,0,0,0,8,8h7.34v23H179.94l-75.51-75.67a8,8,0,0,0-5.66-2.35H59.84a8,8,0,0,0-7.57,10.59l13.29,38.94a8,8,0,0,0,7.57,5.41H93.35L169.2,375.68a8,8,0,0,0,7.42,5H410.2a8,8,0,0,0,3.56-.84l72.73-36.21a8,8,0,0,0,4.43-7.16V180.8A8,8,0,0,0,487.13,174ZM274.46,159.32h37.9v11h-37.9Zm15.34,27H297v23H289.8ZM474.92,331.54l-66.6,33.17H182L106.2,175.26a8,8,0,0,0-7.43-5H78.85L71,147.29H95.45L171,223a8,8,0,0,0,5.66,2.35H410.2a8,8,0,0,0,3.59-.85l61.13-30.69ZM402.2,256.09V334a8,8,0,0,0,11.58,7.16l38.93-19.47a8,8,0,0,0,4.42-7.16V236.7a8,8,0,0,0-11.57-7.16l-38.93,19.39A8,8,0,0,0,402.2,256.09Zm16,5,22.93-11.42v59.92L418.2,321Zm-47.08-13H215.55a8,8,0,0,0-8,8v77.94a8,8,0,0,0,8,8H371.12a8,8,0,0,0,8-8V256A8,8,0,0,0,371.12,248Zm-8,77.94H223.55V264H363.12Z"/></svg>