<?xml version="1.0" standalone="no"?>
<!DOCTYPE svg PUBLIC "-//W3C//DTD SVG 20010904//EN"
 "http://www.w3.org/TR/2001/REC-SVG-20010904/DTD/svg10.dtd">
<svg version="1.0" xmlns="http://www.w3.org/2000/svg"
 width="512.000000pt" height="512.000000pt" viewBox="0 0 512.000000 512.000000"
 preserveAspectRatio="xMidYMid meet">

<g transform="translate(0.000000,512.000000) scale(0.100000,-0.100000)"
fill="#000000" stroke="none">
<path d="M1466 5110 c-41 -13 -84 -58 -96 -99 -5 -20 -10 -160 -10 -311 l0
-275 32 34 c58 62 45 61 633 61 l535 0 0 -339 0 -340 56 34 c63 38 121 50 194
42 103 -12 123 -30 517 -447 211 -225 381 -413 398 -443 27 -47 30 -61 30
-137 0 -73 -4 -92 -27 -136 -58 -110 -163 -169 -286 -162 -120 7 -128 13 -489
397 -179 190 -341 362 -359 381 l-34 35 0 -653 0 -652 23 0 c37 0 83 -36 125
-97 123 -181 247 -414 282 -532 49 -162 5 -326 -119 -444 -73 -70 -163 -114
-249 -123 l-62 -7 0 -448 0 -449 689 0 c426 0 709 4 742 10 271 52 434 338
338 595 -11 29 -33 73 -50 99 l-31 46 31 46 c17 26 41 72 53 103 l23 56 3
1082 c2 921 0 1087 -12 1115 -20 47 -1219 1317 -1269 1346 -38 21 -50 22 -278
22 l-238 0 -3 249 c-3 275 -3 274 -72 325 -27 20 -40 21 -509 23 -265 1 -495
-2 -511 -7z"/>
</g>
</svg>
